<svg xmlns="http://www.w3.org/2000/svg" xmlns:xlink="http://www.w3.org/1999/xlink" version="1.1" x="0px" y="0px" viewBox="0 0 100 125" style="enable-background:new 0 0 100 100;" xml:space="preserve"><path d="M82.083,35.923C80.951,34.701,79.347,34,77.681,34H66v-8c0-8.822-7.178-16-16-16s-16,7.178-16,16v8H22.319  c-1.666,0-3.271,0.701-4.402,1.923s-1.708,2.876-1.58,4.537l2.816,36.614C19.712,84.322,25.843,90,33.112,90h33.775  c7.27,0,13.4-5.678,13.959-12.926l2.816-36.614C83.791,38.799,83.215,37.146,82.083,35.923z M38,26c0-6.617,5.383-12,12-12  s12,5.383,12,12v8H38V26z M76.917,76H64c-0.553,0-1,0.448-1,1s0.447,1,1,1h12.675c-0.941,4.572-5.017,8-9.788,8H33.112  c-4.771,0-8.847-3.428-9.788-8H56c0.553,0,1-0.448,1-1s-0.447-1-1-1H23.083l-2.757-35.847c-0.043-0.562,0.144-1.099,0.526-1.512  S21.756,38,22.319,38H34v10c0,1.104,0.896,2,2,2s2-0.896,2-2V38h24v10c0,1.104,0.896,2,2,2s2-0.896,2-2V38h11.681  c0.563,0,1.085,0.228,1.468,0.641s0.569,0.95,0.526,1.512L76.917,76z M61,77c0,0.552-0.448,1-1,1s-1-0.448-1-1c0-0.552,0.448-1,1-1  S61,76.448,61,77z"/></svg>